<mxfile host="Electron" agent="Mozilla/5.0 (Windows NT 10.0; Win64; x64) AppleWebKit/537.36 (KHTML, like Gecko) draw.io/26.2.2 Chrome/134.0.6998.178 Electron/35.1.2 Safari/537.36" version="26.2.2">
  <diagram name="Page-1" id="13e1069c-82ec-6db2-03f1-153e76fe0fe0">
    <mxGraphModel dx="1051" dy="699" grid="1" gridSize="10" guides="1" tooltips="1" connect="1" arrows="1" fold="1" page="1" pageScale="1" pageWidth="1100" pageHeight="850" background="none" math="0" shadow="0">
      <root>
        <mxCell id="0" />
        <mxCell id="1" parent="0" />
        <mxCell id="7baba1c4bc27f4b0-46" value="Note" style="shape=note;whiteSpace=wrap;html=1;size=14;verticalAlign=top;align=left;spacingTop=-6;rounded=0;shadow=0;comic=0;labelBackgroundColor=none;strokeWidth=1;fontFamily=Verdana;fontSize=12" parent="1" vertex="1">
          <mxGeometry x="960" y="30" width="100" height="35" as="geometry" />
        </mxCell>
        <mxCell id="jhUyC17Qum44f-pdDcR_-1" value="User" style="shape=umlActor;verticalLabelPosition=bottom;verticalAlign=top;html=1;" vertex="1" parent="1">
          <mxGeometry x="90" y="250" width="30" height="60" as="geometry" />
        </mxCell>
        <mxCell id="jhUyC17Qum44f-pdDcR_-2" value="" style="html=1;align=center;verticalAlign=middle;dashed=0;whiteSpace=wrap;rotation=90;" vertex="1" parent="1">
          <mxGeometry x="-203.12" y="638.13" width="616.25" height="10" as="geometry" />
        </mxCell>
        <mxCell id="jhUyC17Qum44f-pdDcR_-3" value="Job Seeker" style="shape=umlLifeline;perimeter=lifelinePerimeter;whiteSpace=wrap;html=1;container=1;dropTarget=0;collapsible=0;recursiveResize=0;outlineConnect=0;portConstraint=eastwest;newEdgeStyle={&quot;curved&quot;:0,&quot;rounded&quot;:0};size=30;" vertex="1" parent="1">
          <mxGeometry x="220" y="270" width="100" height="690" as="geometry" />
        </mxCell>
        <mxCell id="jhUyC17Qum44f-pdDcR_-8" value="" style="html=1;points=[[0,0,0,0,5],[0,1,0,0,-5],[1,0,0,0,5],[1,1,0,0,-5]];perimeter=orthogonalPerimeter;outlineConnect=0;targetShapes=umlLifeline;portConstraint=eastwest;newEdgeStyle={&quot;curved&quot;:0,&quot;rounded&quot;:0};" vertex="1" parent="jhUyC17Qum44f-pdDcR_-3">
          <mxGeometry x="45" y="80" width="10" height="20" as="geometry" />
        </mxCell>
        <mxCell id="jhUyC17Qum44f-pdDcR_-4" value="Job Posting&amp;nbsp;" style="shape=umlLifeline;perimeter=lifelinePerimeter;whiteSpace=wrap;html=1;container=1;dropTarget=0;collapsible=0;recursiveResize=0;outlineConnect=0;portConstraint=eastwest;newEdgeStyle={&quot;curved&quot;:0,&quot;rounded&quot;:0};size=30;" vertex="1" parent="1">
          <mxGeometry x="410" y="270" width="100" height="690" as="geometry" />
        </mxCell>
        <mxCell id="jhUyC17Qum44f-pdDcR_-5" value="Job application" style="shape=umlLifeline;perimeter=lifelinePerimeter;whiteSpace=wrap;html=1;container=1;dropTarget=0;collapsible=0;recursiveResize=0;outlineConnect=0;portConstraint=eastwest;newEdgeStyle={&quot;curved&quot;:0,&quot;rounded&quot;:0};size=30;" vertex="1" parent="1">
          <mxGeometry x="610" y="270" width="100" height="690" as="geometry" />
        </mxCell>
        <mxCell id="jhUyC17Qum44f-pdDcR_-6" value="Employer" style="shape=umlLifeline;perimeter=lifelinePerimeter;whiteSpace=wrap;html=1;container=1;dropTarget=0;collapsible=0;recursiveResize=0;outlineConnect=0;portConstraint=eastwest;newEdgeStyle={&quot;curved&quot;:0,&quot;rounded&quot;:0};size=30;" vertex="1" parent="1">
          <mxGeometry x="830" y="270" width="100" height="690" as="geometry" />
        </mxCell>
        <mxCell id="jhUyC17Qum44f-pdDcR_-7" value="Platform" style="shape=umlLifeline;perimeter=lifelinePerimeter;whiteSpace=wrap;html=1;container=1;dropTarget=0;collapsible=0;recursiveResize=0;outlineConnect=0;portConstraint=eastwest;newEdgeStyle={&quot;curved&quot;:0,&quot;rounded&quot;:0};size=30;" vertex="1" parent="1">
          <mxGeometry x="1040" y="270" width="100" height="690" as="geometry" />
        </mxCell>
        <mxCell id="jhUyC17Qum44f-pdDcR_-49" value="" style="html=1;points=[[0,0,0,0,5],[0,1,0,0,-5],[1,0,0,0,5],[1,1,0,0,-5]];perimeter=orthogonalPerimeter;outlineConnect=0;targetShapes=umlLifeline;portConstraint=eastwest;newEdgeStyle={&quot;curved&quot;:0,&quot;rounded&quot;:0};" vertex="1" parent="jhUyC17Qum44f-pdDcR_-7">
          <mxGeometry x="45" y="360" width="10" height="30" as="geometry" />
        </mxCell>
        <mxCell id="jhUyC17Qum44f-pdDcR_-9" value="Login" style="html=1;verticalAlign=bottom;endArrow=block;curved=0;rounded=0;" edge="1" parent="1">
          <mxGeometry x="0.0281" relative="1" as="geometry">
            <mxPoint x="110" y="350" as="sourcePoint" />
            <mxPoint x="265" y="350" as="targetPoint" />
            <mxPoint as="offset" />
          </mxGeometry>
        </mxCell>
        <mxCell id="jhUyC17Qum44f-pdDcR_-10" value="Success" style="html=1;verticalAlign=bottom;endArrow=open;dashed=1;endSize=8;curved=0;rounded=0;entryX=0.06;entryY=0.2;entryDx=0;entryDy=0;entryPerimeter=0;" edge="1" parent="1" target="jhUyC17Qum44f-pdDcR_-2">
          <mxGeometry relative="1" as="geometry">
            <mxPoint x="115" y="370" as="targetPoint" />
            <mxPoint x="275" y="370" as="sourcePoint" />
          </mxGeometry>
        </mxCell>
        <mxCell id="jhUyC17Qum44f-pdDcR_-11" value="" style="html=1;whiteSpace=wrap;" vertex="1" parent="1">
          <mxGeometry x="265" y="415" width="10" height="20" as="geometry" />
        </mxCell>
        <mxCell id="jhUyC17Qum44f-pdDcR_-12" value="" style="endArrow=block;html=1;rounded=0;align=center;verticalAlign=top;endFill=1;labelBackgroundColor=none;endSize=6;entryX=0;entryY=0;entryDx=0;entryDy=0;" edge="1" target="jhUyC17Qum44f-pdDcR_-11" parent="1">
          <mxGeometry relative="1" as="geometry">
            <mxPoint x="110" y="415" as="sourcePoint" />
          </mxGeometry>
        </mxCell>
        <mxCell id="jhUyC17Qum44f-pdDcR_-14" value="&lt;font style=&quot;font-size: 10px;&quot;&gt;Search for job&lt;/font&gt;" style="text;html=1;align=center;verticalAlign=middle;resizable=0;points=[];autosize=1;strokeColor=none;fillColor=none;" vertex="1" parent="1">
          <mxGeometry x="140" y="395" width="90" height="30" as="geometry" />
        </mxCell>
        <mxCell id="jhUyC17Qum44f-pdDcR_-15" value="" style="fontStyle=0;labelPosition=right;verticalLabelPosition=middle;align=left;verticalAlign=middle;spacingLeft=2;" vertex="1" parent="1">
          <mxGeometry x="265" y="450" width="10" height="20" as="geometry" />
        </mxCell>
        <mxCell id="jhUyC17Qum44f-pdDcR_-20" value="" style="html=1;verticalAlign=bottom;labelBackgroundColor=none;endArrow=block;endFill=1;rounded=0;entryX=0.25;entryY=0;entryDx=0;entryDy=0;" edge="1" parent="1" target="jhUyC17Qum44f-pdDcR_-46">
          <mxGeometry width="160" relative="1" as="geometry">
            <mxPoint x="275" y="450" as="sourcePoint" />
            <mxPoint x="450" y="450" as="targetPoint" />
          </mxGeometry>
        </mxCell>
        <mxCell id="jhUyC17Qum44f-pdDcR_-21" value="&lt;font style=&quot;font-size: 11px;&quot;&gt;Retrieve job details&lt;/font&gt;" style="text;html=1;align=center;verticalAlign=middle;resizable=0;points=[];autosize=1;strokeColor=none;fillColor=none;" vertex="1" parent="1">
          <mxGeometry x="290" y="428" width="120" height="30" as="geometry" />
        </mxCell>
        <mxCell id="jhUyC17Qum44f-pdDcR_-22" value="" style="html=1;whiteSpace=wrap;" vertex="1" parent="1">
          <mxGeometry x="265" y="490" width="10" height="20" as="geometry" />
        </mxCell>
        <mxCell id="jhUyC17Qum44f-pdDcR_-23" value="" style="endArrow=block;html=1;rounded=0;align=center;verticalAlign=top;endFill=1;labelBackgroundColor=none;endSize=6;entryX=0;entryY=0;entryDx=0;entryDy=0;" edge="1" target="jhUyC17Qum44f-pdDcR_-22" parent="1">
          <mxGeometry relative="1" as="geometry">
            <mxPoint x="110" y="490" as="sourcePoint" />
          </mxGeometry>
        </mxCell>
        <mxCell id="jhUyC17Qum44f-pdDcR_-24" value="&lt;font style=&quot;font-size: 11px;&quot;&gt;View job details&lt;/font&gt;" style="text;html=1;align=center;verticalAlign=middle;resizable=0;points=[];autosize=1;strokeColor=none;fillColor=none;" vertex="1" parent="1">
          <mxGeometry x="130" y="470" width="100" height="30" as="geometry" />
        </mxCell>
        <mxCell id="jhUyC17Qum44f-pdDcR_-25" value="" style="fontStyle=0;labelPosition=right;verticalLabelPosition=middle;align=left;verticalAlign=middle;spacingLeft=2;" vertex="1" parent="1">
          <mxGeometry x="265" y="530" width="10" height="20" as="geometry" />
        </mxCell>
        <mxCell id="jhUyC17Qum44f-pdDcR_-26" value="" style="fontStyle=0;labelPosition=right;verticalLabelPosition=middle;align=left;verticalAlign=middle;spacingLeft=2;" vertex="1" parent="1">
          <mxGeometry x="265" y="580" width="10" height="20" as="geometry" />
        </mxCell>
        <mxCell id="jhUyC17Qum44f-pdDcR_-28" value="" style="html=1;whiteSpace=wrap;" vertex="1" parent="1">
          <mxGeometry x="655" y="530" width="10" height="20" as="geometry" />
        </mxCell>
        <mxCell id="jhUyC17Qum44f-pdDcR_-29" value="" style="endArrow=block;html=1;rounded=0;align=center;verticalAlign=top;endFill=1;labelBackgroundColor=none;endSize=6;exitX=1;exitY=0;exitDx=0;exitDy=0;entryX=0;entryY=0;entryDx=0;entryDy=0;" edge="1" target="jhUyC17Qum44f-pdDcR_-28" parent="1" source="jhUyC17Qum44f-pdDcR_-25">
          <mxGeometry relative="1" as="geometry">
            <mxPoint x="420" y="505" as="sourcePoint" />
          </mxGeometry>
        </mxCell>
        <mxCell id="jhUyC17Qum44f-pdDcR_-35" value="Create job application" style="text;html=1;align=center;verticalAlign=middle;resizable=0;points=[];autosize=1;strokeColor=none;fillColor=none;" vertex="1" parent="1">
          <mxGeometry x="390" y="507.5" width="140" height="30" as="geometry" />
        </mxCell>
        <mxCell id="jhUyC17Qum44f-pdDcR_-40" value="" style="html=1;whiteSpace=wrap;" vertex="1" parent="1">
          <mxGeometry x="655" y="580" width="10" height="20" as="geometry" />
        </mxCell>
        <mxCell id="jhUyC17Qum44f-pdDcR_-41" value="" style="endArrow=block;html=1;rounded=0;align=center;verticalAlign=top;endFill=1;labelBackgroundColor=none;endSize=6;entryX=0;entryY=0;entryDx=0;entryDy=0;" edge="1" target="jhUyC17Qum44f-pdDcR_-40" parent="1">
          <mxGeometry relative="1" as="geometry">
            <mxPoint x="275" y="580" as="sourcePoint" />
          </mxGeometry>
        </mxCell>
        <mxCell id="jhUyC17Qum44f-pdDcR_-45" value="fill in application details" style="text;html=1;align=center;verticalAlign=middle;resizable=0;points=[];autosize=1;strokeColor=none;fillColor=none;" vertex="1" parent="1">
          <mxGeometry x="380" y="558" width="150" height="30" as="geometry" />
        </mxCell>
        <mxCell id="jhUyC17Qum44f-pdDcR_-46" value="" style="fontStyle=0;labelPosition=right;verticalLabelPosition=middle;align=left;verticalAlign=middle;spacingLeft=2;" vertex="1" parent="1">
          <mxGeometry x="455" y="450" width="10" height="20" as="geometry" />
        </mxCell>
        <mxCell id="jhUyC17Qum44f-pdDcR_-50" value="" style="html=1;verticalAlign=bottom;endArrow=block;curved=0;rounded=0;" edge="1" target="jhUyC17Qum44f-pdDcR_-49" parent="1" source="jhUyC17Qum44f-pdDcR_-5">
          <mxGeometry relative="1" as="geometry">
            <mxPoint x="740" y="465" as="sourcePoint" />
            <mxPoint x="1080" y="630" as="targetPoint" />
          </mxGeometry>
        </mxCell>
        <mxCell id="jhUyC17Qum44f-pdDcR_-51" value="" style="html=1;verticalAlign=bottom;endArrow=open;dashed=1;endSize=8;curved=0;rounded=0;exitX=0;exitY=1;exitDx=0;exitDy=-5;" edge="1" parent="1">
          <mxGeometry relative="1" as="geometry">
            <mxPoint x="665" y="660" as="targetPoint" />
            <mxPoint x="1090.5" y="660" as="sourcePoint" />
          </mxGeometry>
        </mxCell>
        <mxCell id="jhUyC17Qum44f-pdDcR_-52" value="" style="html=1;whiteSpace=wrap;" vertex="1" parent="1">
          <mxGeometry x="655" y="630" width="10" height="30" as="geometry" />
        </mxCell>
        <mxCell id="jhUyC17Qum44f-pdDcR_-54" value="&lt;font style=&quot;font-size: 11px;&quot;&gt;Submit application&lt;/font&gt;" style="text;html=1;align=center;verticalAlign=middle;resizable=0;points=[];autosize=1;strokeColor=none;fillColor=none;" vertex="1" parent="1">
          <mxGeometry x="820" y="610" width="110" height="30" as="geometry" />
        </mxCell>
        <mxCell id="jhUyC17Qum44f-pdDcR_-57" value="&lt;font style=&quot;font-size: 11px;&quot;&gt;Validate application&lt;/font&gt;" style="text;html=1;align=center;verticalAlign=middle;resizable=0;points=[];autosize=1;strokeColor=none;fillColor=none;" vertex="1" parent="1">
          <mxGeometry x="815" y="640" width="120" height="30" as="geometry" />
        </mxCell>
        <mxCell id="jhUyC17Qum44f-pdDcR_-59" value="" style="html=1;whiteSpace=wrap;" vertex="1" parent="1">
          <mxGeometry x="875" y="700" width="10" height="20" as="geometry" />
        </mxCell>
        <mxCell id="jhUyC17Qum44f-pdDcR_-61" value="" style="html=1;whiteSpace=wrap;" vertex="1" parent="1">
          <mxGeometry x="875" y="760" width="10" height="20" as="geometry" />
        </mxCell>
        <mxCell id="jhUyC17Qum44f-pdDcR_-62" value="Review Application" style="html=1;verticalAlign=bottom;endArrow=open;dashed=1;endSize=8;curved=0;rounded=0;entryX=0.588;entryY=0.267;entryDx=0;entryDy=0;entryPerimeter=0;" edge="1" parent="1" target="jhUyC17Qum44f-pdDcR_-2">
          <mxGeometry x="0.0074" relative="1" as="geometry">
            <mxPoint x="875" y="700" as="sourcePoint" />
            <mxPoint x="114" y="699" as="targetPoint" />
            <mxPoint as="offset" />
          </mxGeometry>
        </mxCell>
        <mxCell id="jhUyC17Qum44f-pdDcR_-63" value="Accept/Reject Application" style="html=1;verticalAlign=bottom;endArrow=open;dashed=1;endSize=8;curved=0;rounded=0;exitX=0;exitY=0;exitDx=0;exitDy=0;entryX=0.687;entryY=0.134;entryDx=0;entryDy=0;entryPerimeter=0;" edge="1" parent="1" source="jhUyC17Qum44f-pdDcR_-61" target="jhUyC17Qum44f-pdDcR_-2">
          <mxGeometry relative="1" as="geometry">
            <mxPoint x="760" y="720" as="sourcePoint" />
            <mxPoint x="680" y="720" as="targetPoint" />
          </mxGeometry>
        </mxCell>
        <mxCell id="jhUyC17Qum44f-pdDcR_-64" value="" style="html=1;whiteSpace=wrap;" vertex="1" parent="1">
          <mxGeometry x="875" y="810" width="10" height="20" as="geometry" />
        </mxCell>
        <mxCell id="jhUyC17Qum44f-pdDcR_-66" value="Update application status" style="html=1;verticalAlign=bottom;endArrow=open;dashed=1;endSize=8;curved=0;rounded=0;exitX=0;exitY=0;exitDx=0;exitDy=0;" edge="1" parent="1" source="jhUyC17Qum44f-pdDcR_-64" target="jhUyC17Qum44f-pdDcR_-5">
          <mxGeometry relative="1" as="geometry">
            <mxPoint x="910" y="780" as="sourcePoint" />
            <mxPoint x="830" y="780" as="targetPoint" />
          </mxGeometry>
        </mxCell>
        <mxCell id="jhUyC17Qum44f-pdDcR_-67" value="Update application status" style="html=1;verticalAlign=bottom;endArrow=block;curved=0;rounded=0;exitX=0.5;exitY=0.936;exitDx=0;exitDy=0;exitPerimeter=0;" edge="1" parent="1">
          <mxGeometry width="80" relative="1" as="geometry">
            <mxPoint x="660.25" y="890.0000000000001" as="sourcePoint" />
            <mxPoint x="1089.75" y="890.16" as="targetPoint" />
            <Array as="points">
              <mxPoint x="750.25" y="890.16" />
            </Array>
          </mxGeometry>
        </mxCell>
      </root>
    </mxGraphModel>
  </diagram>
</mxfile>
